HIERARCHY
ROOT Hips
{
	OFFSET 0.0000 0.0000 0.0000
	CHANNELS 6 Xposition Yposition Zposition Zrotation Xrotation Yrotation
	JOINT Ab
	{
		OFFSET -0.0000 8.1305 -0.0000
		CHANNELS 3 Zrotation Xrotation Yrotation
		JOINT Chest
		{
			OFFSET -0.0000 26.2902 -0.0000
			CHANNELS 3 Zrotation Xrotation Yrotation
			JOINT Neck
			{
				OFFSET -0.0000 26.2902 0.0000
				CHANNELS 3 Zrotation Xrotation Yrotation
				JOINT Head
				{
					OFFSET -0.0000 10.8167 0.0000
					CHANNELS 3 Zrotation Xrotation Yrotation
					End Site
					{
						OFFSET -0.0000 16.7167 0.0000
					}
				}
			}
			JOINT LeftCollar
			{
				OFFSET -0.0000 26.2902 0.0000
				CHANNELS 3 Zrotation Xrotation Yrotation
				JOINT LeftShoulder
				{
					OFFSET 19.6667 -0.0000 0.0000
					CHANNELS 3 Zrotation Xrotation Yrotation
					JOINT LeftElbow
					{
						OFFSET 27.2190 0.0000 0.0000
						CHANNELS 3 Zrotation Xrotation Yrotation
						JOINT LeftWrist
						{
							OFFSET 30.7431 0.0000 0.0000
							CHANNELS 3 Zrotation Xrotation Yrotation
							End Site
							{
								OFFSET 0.0000 -14.7500 0.0000
							}
						}
					}
				}
			}
			JOINT RightCollar
			{
				OFFSET -0.0000 26.2902 0.0000
				CHANNELS 3 Zrotation Xrotation Yrotation
				JOINT RightShoulder
				{
					OFFSET -19.6667 0.0000 0.0000
					CHANNELS 3 Zrotation Xrotation Yrotation
					JOINT RightElbow
					{
						OFFSET -27.2190 0.0000 0.0000
						CHANNELS 3 Zrotation Xrotation Yrotation
						JOINT RightWrist
						{
							OFFSET -30.7431 0.0000 0.0000
							CHANNELS 3 Zrotation Xrotation Yrotation
							End Site
							{
								OFFSET -0.0000 -14.7500 0.0000
							}
						}
					}
				}
			}
		}
	}
	JOINT LeftHip
	{
		OFFSET 11.8000 0.0000 0.0000
		CHANNELS 3 Zrotation Xrotation Yrotation
		JOINT LeftKnee
		{
			OFFSET -0.0000 -39.7832 0.0000
			CHANNELS 3 Zrotation Xrotation Yrotation
			JOINT LeftAnkle
			{
				OFFSET -0.0000 -41.7317 0.0000
				CHANNELS 3 Zrotation Xrotation Yrotation
				End Site
				{
					OFFSET -0.0000 -4.9167 16.7167
				}
			}
		}
	}
	JOINT RightHip
	{
		OFFSET -11.8000 0.0000 0.0000
		CHANNELS 3 Zrotation Xrotation Yrotation
		JOINT RightKnee
		{
			OFFSET -0.0000 -39.7832 0.0000
			CHANNELS 3 Zrotation Xrotation Yrotation
			JOINT RightAnkle
			{
				OFFSET -0.0000 -41.7317 0.0000
				CHANNELS 3 Zrotation Xrotation Yrotation
				End Site
				{
					OFFSET -0.0000 -4.9167 16.7167
				}
			}
		}
	}
}
MOTION
Frames: 24
Frame Time: 0.010000
-17.4025 97.0274 177.0033 358.8855 359.1350 180.1831 357.6660 348.4406 0.4675 3.1496 10.0122 0.4229 359.3250 358.0465 0.2796 355.0124 5.2757 0.5137 339.9658 357.5101 14.0105 317.2198 59.2115 340.5608 9.9848 357.1045 327.7765 86.2463 357.6486 346.9761 26.7540 355.9587 343.1385 46.1722 46.6343 3.8267 340.1531 354.5919 30.0882 271.0541 355.8432 9.8661 357.7856 4.2367 358.4020 357.7025 7.4601 1.6541 353.5282 350.8488 17.4194 359.0394 7.8810 11.1356 5.7090 4.6600 8.3957 350.6660 344.3175 316.6929 
-17.4241 97.0249 176.9917 358.8862 359.1255 180.1832 357.6690 348.4299 0.4658 3.1458 10.0306 0.4191 359.3128 358.0190 0.2702 355.0100 5.2940 0.5159 339.9582 357.5174 13.9963 317.1783 59.1801 340.6110 9.9669 357.1271 327.7512 86.3489 357.6304 347.0464 26.7608 355.9531 343.1257 46.1497 46.6476 3.8629 340.1135 354.6115 30.0636 271.0362 355.8057 9.8467 357.7719 4.2294 358.3990 357.6990 7.4704 1.6695 353.5223 350.8402 17.4015 359.0241 7.8824 11.1639 5.7120 4.6535 8.3800 350.6073 344.3521 316.6780 
-17.4456 97.0227 176.9822 358.8820 359.1110 180.1742 357.6763 348.4179 0.4579 3.1271 10.0430 0.4200 359.2767 358.0230 0.2689 355.0502 5.2691 0.5030 339.9608 357.5052 14.0022 317.1793 59.1820 340.5981 9.9728 357.1002 327.7621 86.3144 357.6345 346.9950 26.7749 355.9443 343.1352 46.1548 46.6162 3.8361 340.1255 354.6155 30.0795 271.0094 355.8088 9.8437 357.7527 4.2198 358.4086 357.6992 7.4770 1.6449 353.5953 350.8566 17.4501 359.0031 7.8635 11.1744 5.7208 4.6696 8.3815 350.6803 344.3020 316.6706 
-17.4659 97.0193 176.9758 358.8849 359.0980 180.1784 357.6850 348.4220 0.4468 3.1144 10.0355 0.4077 359.2180 358.0358 0.2726 355.1207 5.2369 0.5064 339.9612 357.5147 14.0074 317.1659 59.1601 340.6093 9.9312 357.1042 327.7532 86.2927 357.6233 346.9509 26.8090 355.9638 343.1474 46.1202 46.5797 3.8188 340.1683 354.6230 30.1113 270.9997 355.8446 9.8429 357.7410 4.1927 358.4285 357.7047 7.5133 1.6105 353.5655 350.8247 17.4451 358.9981 7.8500 11.1503 5.7119 4.6836 8.4062 350.6808 344.2948 316.6639 
-17.4872 97.0152 176.9639 358.8908 359.0952 180.1782 357.6925 348.4273 0.4405 3.1113 10.0341 0.3973 359.1665 358.0613 0.2763 355.1788 5.1957 0.5117 339.9557 357.5164 14.0125 317.1526 59.1616 340.6225 9.9411 357.1089 327.7459 86.3491 357.6155 346.9984 26.8243 355.9635 343.1573 46.0969 46.5920 3.8234 340.1538 354.6001 30.1045 271.0020 355.8446 9.8118 357.7350 4.1921 358.4264 357.6979 7.5230 1.5930 353.5920 350.8169 17.4796 358.9906 7.8536 11.1707 5.7136 4.6829 8.3601 350.6899 344.2886 316.6880 
-17.5080 97.0103 176.9503 358.8971 359.0953 180.1719 357.6930 348.4333 0.4404 3.1170 10.0382 0.3933 359.1254 358.0777 0.2778 355.2213 5.1607 0.5086 339.9571 357.5086 14.0174 317.1229 59.1700 340.6390 9.9614 357.0980 327.7530 86.3588 357.6118 346.9985 26.8292 355.9535 343.1638 46.0924 46.6035 3.8098 340.1529 354.5991 30.1033 270.9776 355.8303 9.8117 357.7293 4.1945 358.4310 357.6909 7.5387 1.5757 353.6146 350.8076 17.5009 358.9843 7.8578 11.1821 5.7128 4.6888 8.3439 350.6878 344.2837 316.6973 
-17.5286 97.0065 176.9368 358.9063 359.0912 180.1630 357.6941 348.4269 0.4405 3.1246 10.0585 0.3912 359.0943 358.0694 0.2707 355.2473 5.1490 0.4955 339.9485 357.5162 14.0342 317.1886 59.1723 340.5631 9.9124 357.1178 327.7684 86.3773 357.6023 346.9938 26.8398 355.9594 343.1669 46.0775 46.5807 3.8034 340.1837 354.6241 30.1143 270.9702 355.8238 9.8578 357.7274 4.1899 358.4422 357.6830 7.5603 1.5621 353.5969 350.7801 17.4924 358.9808 7.8531 11.1724 5.7116 4.7059 8.3575 350.6905 344.2615 316.6962 
-17.5510 97.0028 176.9246 358.9116 359.0837 180.1522 357.6979 348.4200 0.4381 3.1255 10.0740 0.3892 359.0482 358.0777 0.2622 355.2983 5.1154 0.4828 339.9404 357.5087 14.0519 317.2589 59.1944 340.4738 9.9256 357.1209 327.8034 86.3957 357.5743 347.0193 26.8514 355.9598 343.1703 46.0672 46.5780 3.8003 340.1795 354.6061 30.1178 270.9758 355.8545 9.8152 357.7171 4.1820 358.4426 357.6804 7.5771 1.5623 353.6582 350.7746 17.5028 358.9678 7.8494 11.2033 5.7137 4.7109 8.3436 350.7175 344.2350 316.7006 
-17.5758 97.0000 176.9119 358.9128 359.0792 180.1487 357.6919 348.4198 0.4337 3.1335 10.0871 0.3905 359.0202 358.0708 0.2590 355.3276 5.0976 0.4756 339.9290 357.4932 14.0551 317.3186 59.2327 340.4335 9.9221 357.1161 327.8093 86.4185 357.5615 347.0570 26.8584 355.9787 343.1712 46.0651 46.5431 3.7929 340.1877 354.6290 30.1278 271.0234 355.8428 9.8027 357.7013 4.1721 358.4357 357.6785 7.6030 1.5651 353.6782 350.7658 17.5178 358.9525 7.8453 11.1945 5.7140 4.7243 8.3305 350.7542 344.2126 316.7217 
-17.5985 96.9955 176.8978 358.9257 359.0728 180.1406 357.6922 348.4123 0.4396 3.1425 10.1040 0.3913 359.0011 358.0554 0.2500 355.3421 5.1022 0.4729 339.9208 357.5206 14.0507 317.3350 59.2241 340.4254 9.8848 357.1380 327.8031 86.3384 357.5528 347.0109 26.8594 355.9539 343.1843 46.0950 46.5372 3.7585 340.1462 354.6028 30.1193 271.0109 355.8390 9.8293 357.7032 4.1684 358.4405 357.6689 7.6212 1.5215 353.6591 350.7282 17.5340 358.9480 7.8383 11.2032 5.7178 4.7407 8.3374 350.7541 344.1977 316.7067 
-17.6253 96.9931 176.8793 358.9214 359.0798 180.1335 357.6783 348.4113 0.4368 3.1474 10.1296 0.3902 359.0022 358.0394 0.2452 355.3433 5.1022 0.4705 339.9267 357.4901 14.0503 317.3450 59.2722 340.3990 9.9886 357.1094 327.7808 86.6084 357.7159 347.3904 26.8600 355.9791 343.1819 46.1119 46.5297 3.7391 340.1610 354.5965 30.1609 271.3818 355.6935 9.2877 357.6810 4.1780 358.4443 357.6692 7.6400 1.4962 353.6503 350.7070 17.5743 358.9281 7.8558 11.1987 5.7119 4.7407 8.3200 350.7519 344.1989 316.7334 
-17.6510 96.9889 176.8692 358.9229 359.0675 180.1190 357.6721 348.4079 0.4391 3.1553 10.1421 0.3940 358.9993 358.0178 0.2444 355.3264 5.1080 0.4609 340.0401 357.5089 14.0734 317.0536 59.4595 340.3906 10.2307 357.0146 328.0731 86.4112 357.5023 347.2566 26.8461 355.9824 343.1800 46.1501 46.5514 3.7369 340.0887 354.5891 30.1342 271.4523 355.6622 9.2628 357.6625 4.1592 358.4771 357.6673 7.6711 1.4942 353.6966 350.6905 17.5496 358.9097 7.8422 11.2445 5.7199 4.7467 8.2625 350.7965 344.1645 316.7536 
-17.6813 96.9868 176.8568 358.9236 359.0625 180.1040 357.6764 348.4093 0.4408 3.1449 10.1556 0.3969 358.9794 358.0016 0.2394 355.3423 5.1104 0.4548 340.0342 357.5287 14.0717 317.0596 59.4261 340.3985 10.2148 357.0628 328.0585 86.3717 357.4901 347.2308 26.8426 355.9609 343.1739 46.1721 46.5911 3.7231 340.0236 354.5562 30.1588 271.8637 355.5163 8.6366 357.6413 4.1578 358.4758 357.6669 7.6792 1.5013 353.6941 350.6679 17.5375 358.8851 7.8344 11.2725 5.7286 4.7595 8.2495 350.8115 344.1415 316.7523 
-17.7111 96.9829 176.8445 358.9258 359.0518 180.0940 357.6780 348.4057 0.4398 3.1370 10.1616 0.3965 358.9559 358.0211 0.2314 355.3703 5.0721 0.4508 340.0355 357.5159 14.0623 317.0239 59.4170 340.4384 10.2731 357.0592 328.0634 86.3406 357.4910 347.2327 26.8473 355.9599 343.1809 46.1992 46.5838 3.6815 340.0477 354.5674 30.1718 271.8841 355.5419 8.6678 357.6228 4.1486 358.4814 357.6664 7.6958 1.4797 353.7236 350.6591 17.5560 358.8646 7.8153 11.2387 5.7297 4.7918 8.2913 350.7948 344.1404 316.7510 
-17.7398 96.9782 176.8361 358.9337 359.0372 180.0959 357.6745 348.4051 0.4345 3.1458 10.1651 0.3870 358.9129 358.0437 0.2246 355.4147 5.0274 0.4453 340.0299 357.5150 14.0626 317.0203 59.4025 340.4472 10.2480 357.0670 328.0521 86.5081 357.4997 347.2984 26.8488 355.9571 343.1875 46.2215 46.5602 3.6491 340.0741 354.5695 30.1801 271.8192 355.5425 8.6996 357.6123 4.1242 358.4701 357.6626 7.7246 1.4690 353.7404 350.6404 17.5723 358.8527 7.7909 11.2177 5.7317 4.8242 8.3085 350.8070 344.1161 316.7567 
-17.7722 96.9751 176.8244 358.9376 359.0280 180.0912 357.6716 348.4023 0.4346 3.1504 10.1778 0.3841 358.8814 358.0561 0.2249 355.4493 4.9951 0.4410 340.0189 357.5170 14.0791 317.0731 59.3987 340.3923 10.2310 357.0759 328.0494 86.6322 357.5181 347.3681 26.8500 355.9608 343.1940 46.2358 46.5475 3.6312 340.1031 354.5845 30.1607 271.6285 355.5771 9.0036 357.5940 4.1137 358.4554 357.6592 7.7413 1.4689 353.7460 350.6205 17.6002 358.8312 7.7775 11.2086 5.7420 4.8426 8.2940 350.8423 344.0793 316.7775 
-17.8052 96.9717 176.8116 358.9426 359.0185 180.0765 357.6742 348.3945 0.4376 3.1473 10.1980 0.3910 358.8727 358.0458 0.2270 355.4494 4.9891 0.4313 340.0161 357.5049 14.0874 317.1023 59.4124 340.3581 10.2532 357.0654 328.0683 86.5709 357.5165 347.3509 26.8551 355.9660 343.1884 46.2348 46.5534 3.6372 340.1287 354.5953 30.1342 271.4500 355.6534 9.3472 357.5781 4.1050 358.4559 357.6516 7.7576 1.4716 353.7619 350.6119 17.6299 358.8102 7.7570 11.1808 5.7491 4.8786 8.3228 350.8502 344.0524 316.7832 
-17.8360 96.9678 176.8008 358.9544 359.0113 180.0679 357.6862 348.3969 0.4369 3.1406 10.2125 0.3867 358.8452 358.0350 0.2184 355.4670 4.9734 0.4234 340.0083 357.5035 14.1114 317.1849 59.4320 340.2725 10.2363 357.0629 328.0830 86.5745 357.5230 347.3791 26.8679 355.9604 343.1714 46.2025 46.5958 3.6737 340.1041 354.5937 30.1162 271.4314 355.6561 9.3003 357.5724 4.0938 358.4639 357.6411 7.7816 1.4603 353.7912 350.5908 17.6123 358.8000 7.7402 11.1725 5.7502 4.9094 8.3335 350.8486 344.0399 316.7928 
-17.8696 96.9636 176.7928 358.9608 358.9936 180.0582 357.6792 348.3928 0.4413 3.1596 10.2213 0.3884 358.8022 358.0370 0.2171 355.4961 4.9470 0.4083 339.9776 357.4980 14.1272 317.2621 59.4238 340.2235 10.2054 357.0790 328.0705 86.5751 357.5397 347.3843 26.8636 355.9535 343.1667 46.1949 46.5908 3.6758 340.1194 354.5875 30.1163 271.3880 355.6729 9.3187 357.5581 4.0723 358.4608 357.6329 7.8008 1.4430 353.8010 350.5745 17.6356 358.7791 7.7093 11.1498 5.7629 4.9395 8.3560 350.8612 344.0125 316.7819 
-17.9064 96.9596 176.7836 358.9666 358.9807 180.0580 357.6864 348.3973 0.4371 3.1450 10.2204 0.3847 358.8265 358.0155 0.2106 355.4517 4.9625 0.4238 339.9906 357.4993 14.0908 317.1456 59.3932 340.3481 10.2374 357.0662 328.0585 86.5141 357.5269 347.3442 26.8842 355.9464 343.1645 46.1901 46.5486 3.6534 340.1423 354.5957 30.1319 271.4402 355.6460 9.3283 357.5363 4.0433 358.4785 357.6370 7.8452 1.4139 353.8154 350.5406 17.6606 358.7534 7.6779 11.1195 5.7817 4.9909 8.3723 350.8735 343.9724 316.7880 
-17.9450 96.9554 176.7691 358.9691 358.9762 180.0465 357.6959 348.4110 0.4355 3.1302 10.2106 0.3908 359.0166 358.0330 0.3012 355.2638 4.8647 0.5134 340.0050 357.4937 14.1215 317.1689 59.4473 340.2951 10.2785 357.0774 328.0931 86.4891 357.5115 347.3979 26.8885 355.9548 343.1663 46.2169 46.5311 3.6255 340.0971 354.6056 30.1641 271.8074 355.5079 8.7289 357.5093 4.0378 358.4729 357.6394 7.8651 1.4415 353.8777 350.5400 17.6256 358.7221 7.6599 11.0961 5.7919 5.0320 8.4261 350.8909 343.9346 316.7729 
-17.9821 96.9506 176.7530 358.9806 358.9758 180.0380 357.7017 348.4182 0.4405 3.1388 10.2247 0.3874 359.0086 358.0490 0.2354 355.1329 4.8863 0.4606 339.9961 357.4847 14.1157 317.1271 59.4109 340.3503 10.2446 357.0677 328.1134 86.2116 357.4653 347.1444 26.8805 355.9574 343.1469 46.2044 46.5764 3.6633 340.0645 354.5941 30.1361 271.8120 355.4994 8.6309 357.4973 4.0394 358.4756 357.6307 7.8878 1.4166 353.8905 350.5102 17.6518 358.7065 7.6521 11.0915 5.7996 5.0635 8.4096 350.9122 343.9119 316.8000 
-18.0189 96.9467 176.7362 358.9958 358.9752 180.0321 357.7078 348.4241 0.4406 3.1383 10.2355 0.3894 358.9214 358.0565 0.2101 355.1855 4.8880 0.4378 339.9872 357.5007 14.1082 317.1688 59.4110 340.3237 10.2058 357.0757 328.1104 86.2904 357.4868 347.1903 26.8815 355.9538 343.1447 46.2348 46.5713 3.6406 340.0479 354.5780 30.1287 271.8270 355.5024 8.6399 357.4912 4.0488 358.4688 357.6187 7.8909 1.4251 353.8564 350.4971 17.6694 358.6940 7.6400 11.1157 5.8122 5.1049 8.4283 350.9008 343.8916 316.7555 
-18.0613 96.9445 176.7198 358.9956 358.9707 180.0192 357.7051 348.4303 0.4449 3.1381 10.2381 0.3931 358.8773 358.0829 0.2149 355.2206 4.8524 0.4361 339.9764 357.5126 14.0938 317.1424 59.3855 340.3726 10.1953 357.0729 328.1006 86.3063 357.4963 347.1716 26.8753 355.9545 343.1608 46.2806 46.5413 3.5897 340.0525 354.5765 30.1261 271.8714 355.4793 8.7429 357.4624 4.0789 358.2535 357.5845 7.8310 1.6709 353.8126 350.5212 17.6631 358.6591 7.6193 11.1021 5.8310 5.1520 8.4456 350.7296 343.9575 316.7425 
